<?xml version="1.0" encoding="UTF-8"?>
<svg xmlns="http://www.w3.org/2000/svg" xmlns:xlink="http://www.w3.org/1999/xlink" width="300pt" height="300pt" viewBox="0 0 300 300" version="1.1">
<g id="surface1">
<rect x="0" y="0" width="300" height="300" style="fill:rgb(100%,100%,100%);fill-opacity:1;stroke:none;"/>
<path style=" stroke:none;fill-rule:nonzero;fill:rgb(87.799072%,36.499023%,14.498901%);fill-opacity:1;" d="M 154.664063 150.035156 C 156.816406 148.46875 157.085938 146.132813 155.484375 144.152344 C 150.265625 137.691406 145.882813 130.566406 142.265625 122.839844 C 141.914063 122.085938 141.53125 121.347656 140.851563 119.972656 C 137.835938 124.410156 134.777344 128.222656 132.453125 132.539063 C 130.371094 136.40625 131.363281 140.695313 133.207031 144.496094 C 134.023438 146.183594 133.621094 147.019531 132.535156 148.160156 C 131.773438 148.960938 131.082031 150.148438 130.902344 151.269531 C 130.621094 153.074219 129.886719 154.085938 128.445313 154.84375 C 125.253906 156.519531 122.019531 158.058594 118.4375 157.726563 C 117.285156 157.621094 115.699219 156.96875 115.175781 155.976563 C 112.707031 151.359375 109.5 147.78125 104.886719 145.617188 C 105.335938 144.871094 105.640625 144.378906 105.933594 143.878906 C 106.84375 142.324219 106.691406 141.355469 105.578125 139.582031 C 102.566406 134.761719 100.078125 129.507813 97.550781 124.320313 C 95.871094 120.886719 94.464844 117.285156 92.984375 113.734375 C 92.496094 112.570313 91.867188 112.289063 90.988281 113.082031 C 88.585938 115.242188 86.25 113.011719 83.894531 112.886719 C 83.59375 112.867188 83.128906 111.46875 83.121094 110.703125 C 83.097656 107.921875 83.082031 107.890625 80.878906 108.617188 C 80.203125 108.835938 79.417969 108.648438 78.679688 108.648438 C 78.582031 108.445313 78.480469 108.238281 78.378906 108.03125 C 80.648438 105.445313 82.933594 102.878906 85.183594 100.273438 C 86.351563 98.921875 87.34375 97.335938 88.621094 96.144531 C 90.789063 94.125 92.671875 91.390625 96.054688 91.890625 C 96.726563 91.988281 97.484375 91.257813 98.210938 90.9375 C 99.195313 90.5 100.164063 89.941406 101.1875 89.722656 C 101.820313 89.585938 102.9375 89.71875 103.164063 90.167969 C 104.523438 92.824219 108.066406 91.117188 109.230469 94.644531 C 111.109375 100.34375 113.605469 105.792969 115.9375 111.296875 C 116.640625 112.949219 117.667969 114.421875 118.628906 116.121094 C 121.027344 112.472656 123.222656 108.871094 125.664063 105.492188 C 127.578125 102.839844 129.789063 100.464844 131.867188 97.957031 C 132.148438 97.617188 132.601563 97.246094 132.613281 96.871094 C 132.773438 92.996094 135.300781 90.871094 137.589844 88.820313 C 140.285156 86.402344 143.300781 84.417969 146.25 82.378906 C 148.253906 80.996094 149.421875 81.613281 150.933594 83.683594 C 152.535156 85.875 154.515625 87.710938 156.222656 89.816406 C 156.753906 90.46875 157.300781 91.558594 157.191406 92.335938 C 156.589844 96.679688 157.691406 100.699219 159.34375 104.371094 C 161.496094 109.15625 164.117188 113.6875 166.730469 118.1875 C 167.46875 119.460938 168.871094 120.246094 169.890625 121.183594 C 172.015625 117.113281 174.371094 112.660156 176.675781 108.171875 C 180.34375 101.039063 185.054688 94.894531 190.378906 89.285156 C 193.449219 86.050781 196.820313 83.351563 200.800781 81.808594 C 201.902344 81.382813 203.261719 81.484375 204.445313 81.71875 C 206.476563 82.117188 208.425781 83.402344 210.4375 81.363281 C 210.785156 81.015625 212.34375 81.691406 213.011719 82.332031 C 215.601563 84.820313 218.0625 87.484375 220.847656 90.371094 C 220.089844 90.308594 219.648438 90.277344 219.277344 90.246094 C 220.066406 91.210938 220.832031 92.144531 221.621094 93.109375 C 220.316406 94.859375 219.28125 96.4375 217.183594 95.132813 C 216.585938 94.761719 215.847656 94.542969 215.160156 94.511719 C 213.882813 94.445313 212.597656 94.570313 211.316406 94.613281 C 211.488281 95.886719 211.660156 97.160156 211.855469 98.617188 C 210.035156 99.042969 207.910156 99.492188 205.8125 100.070313 C 205.367188 100.195313 204.925781 100.710938 204.648438 101.171875 C 203.910156 102.40625 203.339844 103.769531 202.566406 104.972656 C 201.292969 106.945313 199.90625 108.832031 198.578125 110.761719 C 198.496094 110.878906 198.511719 111.175781 198.441406 111.191406 C 194.769531 112.160156 195.609375 116.765625 193.527344 119.035156 C 193.230469 119.355469 193.484375 120.324219 193.484375 121.699219 C 195.109375 119.425781 196.230469 117.695313 197.5 116.117188 C 199.417969 113.738281 201.457031 111.476563 203.414063 109.132813 C 204.136719 108.261719 204.679688 107.179688 205.472656 106.410156 C 206.242188 105.65625 207.222656 105.183594 208.113281 104.585938 C 208.28125 104.722656 208.449219 104.859375 208.617188 105 C 208.371094 105.824219 208.296875 106.785156 207.855469 107.445313 C 204.375 112.675781 200.738281 117.777344 197.316406 123.054688 C 193.332031 129.203125 189.117188 135.246094 186.679688 142.441406 C 185.929688 144.664063 186.105469 147.285156 185.839844 149.722656 C 185.726563 150.734375 185.871094 152.125 185.351563 152.636719 C 184.902344 153.082031 183.679688 152.535156 182.488281 152.386719 C 182.582031 152.21875 182.453125 152.410156 182.363281 152.617188 C 181.753906 154.035156 183.53125 156.425781 180.746094 157.046875 C 179.210938 157.386719 177.855469 158.648438 176.339844 159.207031 C 174.152344 160.011719 171.867188 160.476563 169.667969 161.230469 C 166.871094 162.191406 164.988281 160.488281 163.351563 158.449219 C 160.769531 155.234375 158.4375 151.742188 154.664063 150.035156 "/>
<path style=" stroke:none;fill-rule:nonzero;fill:rgb(33.699036%,33.299255%,33.299255%);fill-opacity:1;" d="M 42.464844 202.40625 C 41.128906 206.773438 39.847656 210.765625 38.695313 214.804688 C 38.109375 216.851563 37.25 218.144531 35.117188 218.097656 C 33.203125 218.054688 31.28125 218.320313 29.367188 218.519531 C 27.730469 218.691406 27.082031 217.785156 26.84375 216.066406 C 25.742188 207.960938 24.597656 199.863281 23.4375 191.769531 C 23.019531 188.832031 22.570313 185.898438 22.042969 182.984375 C 21.730469 181.28125 22.328125 180.476563 23.714844 179.957031 C 29.699219 177.699219 30.574219 178.164063 31.398438 185.179688 C 32.285156 192.75 32.898438 200.359375 33.636719 207.953125 C 33.699219 208.566406 33.8125 209.175781 33.988281 210.382813 C 34.433594 209.347656 34.707031 208.851563 34.867188 208.320313 C 35.949219 204.742188 36.777344 201.042969 38.132813 197.605469 C 39.671875 193.703125 39.769531 189.941406 38.726563 185.921875 C 37.921875 182.816406 38.1875 182.496094 40.820313 181.613281 C 46.078125 179.84375 46.550781 180.070313 47.675781 186.054688 C 49.066406 193.441406 50.289063 200.867188 51.59375 208.273438 C 51.691406 208.804688 51.875 209.3125 52.453125 209.855469 C 53.03125 206.128906 53.734375 202.421875 54.15625 198.671875 C 54.730469 193.570313 55.183594 188.445313 55.511719 183.3125 C 55.667969 180.851563 56.824219 180.085938 58.738281 179.675781 C 63.132813 178.726563 63.921875 179.261719 63.464844 184.054688 C 62.457031 194.648438 60.53125 205.003906 56.792969 214.867188 C 55.878906 217.285156 54.464844 218.363281 52.25 218.382813 C 51.605469 218.386719 50.964844 218.445313 50.324219 218.445313 C 44.539063 218.445313 45.816406 219.414063 44.503906 213.261719 C 43.871094 210.300781 43.535156 207.253906 43.035156 204.25 C 42.949219 203.730469 42.726563 203.238281 42.464844 202.40625 "/>
<path style=" stroke:none;fill-rule:nonzero;fill:rgb(33.699036%,33.299255%,33.299255%);fill-opacity:1;" d="M 114.101563 211.351563 C 119.25 212.117188 123.246094 209.167969 123.976563 203.839844 C 124.417969 200.632813 124.515625 197.238281 124.101563 194.035156 C 122.972656 185.34375 123.6875 186.179688 115.609375 186.039063 C 115.539063 186.039063 115.46875 186.050781 115.398438 186.046875 C 114.046875 185.9375 113.738281 186.710938 113.785156 188.121094 C 113.945313 193.1875 114.019531 198.257813 114.097656 203.324219 C 114.136719 205.960938 114.101563 208.601563 114.101563 211.351563 M 105.210938 198.75 C 105.210938 193.601563 105.277344 188.449219 105.175781 183.304688 C 105.136719 181.363281 105.480469 180.21875 107.410156 180.183594 C 113.660156 180.066406 119.910156 179.835938 126.160156 179.773438 C 128.382813 179.746094 129.898438 181.269531 130.773438 183.476563 C 134.441406 192.730469 134.285156 201.953125 129.996094 210.839844 C 127.570313 215.867188 123.46875 218.492188 118.375 218.453125 C 114.691406 218.425781 111.011719 217.851563 107.332031 217.507813 C 105.789063 217.363281 105.402344 216.332031 105.425781 214.683594 C 105.5 209.375 105.453125 204.0625 105.453125 198.746094 C 105.371094 198.746094 105.289063 198.746094 105.210938 198.75 "/>
<path style=" stroke:none;fill-rule:nonzero;fill:rgb(33.699036%,33.299255%,33.299255%);fill-opacity:1;" d="M 175.222656 199.921875 C 181.554688 200.160156 183.246094 198.792969 183.878906 192.863281 C 184.453125 187.484375 183.398438 186.121094 178.574219 186.03125 C 177.867188 186.019531 177.117188 185.886719 176.457031 186.097656 C 175.980469 186.253906 175.285156 186.878906 175.277344 187.3125 C 175.1875 191.453125 175.222656 195.597656 175.222656 199.921875 M 185.410156 204.269531 C 187.425781 207.949219 189.441406 211.539063 191.371094 215.1875 C 192.589844 217.488281 192.488281 217.777344 190.074219 218.160156 C 188.324219 218.433594 186.507813 218.5625 184.761719 218.339844 C 183.972656 218.242188 183.023438 217.300781 182.605469 216.453125 C 181.425781 214.070313 180.480469 211.542969 179.449219 209.070313 C 178.113281 205.875 178.113281 205.875 174.515625 206.695313 C 174.515625 209.621094 174.457031 212.664063 174.539063 215.699219 C 174.582031 217.304688 174.074219 217.902344 172.640625 218.164063 C 166.476563 219.300781 166.425781 219.339844 166.496094 212.347656 C 166.597656 202.609375 166.78125 192.871094 166.871094 183.132813 C 166.886719 181.625 167.214844 180.679688 168.636719 180.398438 C 174.28125 179.277344 179.9375 178.9375 185.640625 179.851563 C 188.835938 180.359375 190.730469 182.144531 191.421875 185.828125 C 192.847656 193.421875 191.210938 199.65625 185.410156 204.269531 "/>
<path style=" stroke:none;fill-rule:nonzero;fill:rgb(33.699036%,33.299255%,33.299255%);fill-opacity:1;" d="M 213.328125 201.78125 C 212.359375 197.007813 211.503906 192.566406 210.515625 188.164063 C 210.367188 187.496094 209.621094 187 209.152344 186.425781 C 208.722656 187.046875 208.070313 187.597656 207.898438 188.300781 C 206.941406 192.15625 206.097656 196.050781 205.230469 199.933594 C 205.054688 200.738281 204.957031 201.570313 204.789063 202.589844 C 207.742188 202.308594 210.386719 202.058594 213.328125 201.78125 M 214.355469 208.535156 C 210.957031 208.789063 207.828125 208.953125 204.722656 209.320313 C 204.175781 209.382813 203.523438 210.214844 203.253906 210.867188 C 202.902344 211.714844 202.976563 212.769531 202.710938 213.675781 C 202.304688 215.066406 202.039063 217.277344 201.230469 217.597656 C 199.355469 218.34375 197.191406 218.230469 195.144531 218.28125 C 194.921875 218.285156 194.363281 216.957031 194.492188 216.40625 C 197.179688 204.996094 199.90625 193.59375 202.757813 182.234375 C 202.984375 181.339844 204.140625 180.238281 204.964844 180.121094 C 208.132813 179.675781 211.34375 179.441406 214.535156 179.472656 C 215.226563 179.480469 216.296875 180.796875 216.53125 181.722656 C 218.3125 188.667969 219.980469 195.644531 221.566406 202.648438 C 222.484375 206.695313 223.183594 210.800781 223.992188 214.878906 C 224.5625 217.773438 224.257813 218.234375 221.574219 218.4375 C 216.179688 218.84375 216.183594 218.84375 215.167969 212.886719 C 214.941406 211.558594 214.675781 210.238281 214.355469 208.535156 "/>
<path style=" stroke:none;fill-rule:nonzero;fill:rgb(33.699036%,33.299255%,33.299255%);fill-opacity:1;" d="M 136.316406 200.828125 C 136.777344 194.539063 137.753906 188.554688 140.15625 182.972656 C 140.644531 181.839844 141.851563 180.4375 142.816406 180.34375 C 147.695313 179.859375 152.601563 179.730469 157.5 179.570313 C 159.480469 179.503906 160.539063 180.882813 160.613281 182.996094 C 160.734375 186.449219 160.738281 189.90625 160.671875 193.359375 C 160.644531 194.875 159.746094 195.636719 158.402344 195.675781 C 158.257813 195.679688 158.117188 195.6875 157.972656 195.695313 C 153.816406 195.9375 153.820313 195.9375 153.46875 191.3125 C 153.433594 190.828125 153.296875 190.34375 153.339844 189.871094 C 153.59375 187.117188 152.464844 186.300781 150.113281 186.351563 C 146.800781 186.425781 146.851563 186.261719 146.195313 190.027344 C 145.121094 196.199219 145.195313 202.308594 146.546875 208.4375 C 147.007813 210.53125 147.933594 211.308594 149.714844 210.910156 C 152.640625 210.257813 155.585938 209.675781 158.46875 208.835938 C 159.847656 208.433594 160.371094 208.882813 160.796875 210.265625 C 162.484375 215.789063 162.183594 216.601563 156.960938 217.507813 C 153.460938 218.117188 149.886719 218.398438 146.339844 218.464844 C 142.441406 218.53125 139.554688 216.285156 138.410156 212.082031 C 137.417969 208.433594 136.992188 204.589844 136.316406 200.828125 "/>
<path style=" stroke:none;fill-rule:nonzero;fill:rgb(33.699036%,33.299255%,33.299255%);fill-opacity:1;" d="M 236.550781 187.105469 C 236.691406 190.421875 236.824219 193.53125 236.964844 196.828125 C 239.660156 196.828125 242.199219 196.976563 244.714844 196.78125 C 246.722656 196.625 247.359375 197.242188 247.066406 199.585938 C 246.578125 203.503906 246.054688 204.230469 242.503906 204.359375 C 240.804688 204.421875 239.101563 204.371094 237.089844 204.371094 C 237.089844 208 236.984375 211.4375 237.128906 214.859375 C 237.222656 217.070313 236.59375 217.933594 234.589844 218.242188 C 228.414063 219.195313 228.28125 219.058594 228.292969 212.082031 C 228.3125 202.335938 228.195313 192.59375 228.050781 182.847656 C 228.027344 181.1875 228.382813 180.148438 229.929688 180.105469 C 235.617188 179.953125 241.304688 179.847656 246.992188 179.726563 C 248.402344 179.699219 248.871094 180.578125 248.722656 182.042969 C 248.714844 182.121094 248.714844 182.203125 248.714844 182.285156 C 248.644531 187.5625 248.558594 187.566406 243.914063 187.140625 C 241.589844 186.925781 239.238281 187.105469 236.550781 187.105469 "/>
<path style=" stroke:none;fill-rule:nonzero;fill:rgb(33.699036%,33.299255%,33.299255%);fill-opacity:1;" d="M 268.757813 187.40625 C 268.757813 196.136719 268.742188 204.507813 268.761719 212.878906 C 268.773438 218.042969 268.582031 218.324219 264.019531 218.433594 C 258.933594 218.558594 259.867188 218.679688 259.886719 213.914063 C 259.914063 205.859375 260.019531 197.804688 260.210938 189.75 C 260.253906 187.765625 259.777344 186.867188 257.957031 187.121094 C 257.039063 187.246094 256.097656 187.167969 255.183594 187.320313 C 253.15625 187.667969 252.121094 187.1875 251.960938 184.4375 C 251.695313 179.90625 251.695313 179.5625 255.734375 179.425781 C 262.222656 179.199219 268.710938 179.148438 275.195313 178.886719 C 277.132813 178.8125 277.996094 179.628906 278.003906 181.746094 C 278.007813 182.230469 278.046875 182.714844 278.035156 183.195313 C 277.925781 187.429688 277.855469 187.484375 274.136719 187.414063 C 272.304688 187.378906 270.46875 187.40625 268.757813 187.40625 "/>
<path style=" stroke:none;fill-rule:nonzero;fill:rgb(33.699036%,33.299255%,33.299255%);fill-opacity:1;" d="M 91.46875 210.984375 C 95 210.785156 98.179688 210.601563 101.292969 210.421875 C 101.4375 210.652344 101.574219 210.765625 101.59375 210.90625 C 102.609375 219.226563 101.679688 218.296875 96.300781 218.460938 C 92.886719 218.566406 89.460938 218.429688 86.042969 218.367188 C 84.140625 218.335938 83.160156 217.550781 83.152344 215.046875 C 83.105469 204.023438 82.894531 193 82.6875 181.980469 C 82.660156 180.4375 83.179688 179.738281 84.476563 179.644531 C 84.691406 179.628906 84.898438 179.5625 85.113281 179.539063 C 91.277344 178.800781 91.824219 179.300781 91.777344 186.1875 C 91.730469 192.867188 91.574219 199.546875 91.472656 206.222656 C 91.453125 207.652344 91.46875 209.085938 91.46875 210.984375 "/>
<path style=" stroke:none;fill-rule:nonzero;fill:rgb(33.699036%,33.299255%,33.299255%);fill-opacity:1;" d="M 76.722656 198.671875 C 76.722656 204.304688 76.675781 209.9375 76.746094 215.566406 C 76.769531 217.296875 76.28125 218.089844 74.707031 218.105469 C 73 218.121094 71.296875 218.3125 69.59375 218.429688 C 68.40625 218.515625 67.921875 217.867188 67.929688 216.554688 C 67.980469 204.96875 68.015625 193.378906 68.050781 181.792969 C 68.054688 180.425781 68.609375 179.699219 69.820313 179.609375 C 70.035156 179.59375 70.242188 179.542969 70.457031 179.519531 C 75.96875 178.890625 76.394531 179.304688 76.414063 185.394531 C 76.429688 189.820313 76.417969 194.246094 76.417969 198.671875 "/>
</g>
</svg>
